<svg width="24" height="24" viewBox="0 0 24 24" fill="none" xmlns="http://www.w3.org/2000/svg">
<path d="M6.98259 3H17.0174C19.2168 3 21 4.78316 21 6.98259V17.0174C21 19.2168 19.2168 21 17.0174 21H6.98259C4.78316 20.9995 3 19.2168 3 17.0174V6.98259C3 4.78316 4.78316 3 6.98259 3Z" fill="#0A0B09"/>
<path d="M13.353 10.2581V11.9404H15.8394L15.4419 14.5315H13.353V21H10.5516V14.5309H8.27441V11.9399H10.5516V9.96467C10.5575 9.03876 10.7598 8.07691 11.5349 7.32213C12.0752 6.79802 12.8492 6.49117 13.9377 6.47668C14.6383 6.48473 15.3051 6.54696 15.944 6.65157V8.85744H14.8148C14.4173 8.8553 14.082 8.94489 13.8208 9.14605C13.4989 9.40301 13.3551 9.78228 13.353 10.2581Z" fill="white"/>
</svg>
