<svg width="24" height="24" viewBox="0 0 24 24" fill="none" xmlns="http://www.w3.org/2000/svg">
<path d="M6.98259 3H17.0174C19.2168 3 21 4.78316 21 6.98259V17.0174C21 19.2168 19.2168 21 17.0174 21H6.98259C4.78316 21 3 19.2168 3 17.0174V6.98259C3.00054 4.78316 4.78316 3 6.98259 3Z" fill="#0A0B09"/>
<path d="M18.6836 11.999C18.6815 11.7763 18.6815 11.5644 18.6815 11.3568C18.6815 10.6777 18.6847 10.0474 18.6434 9.24429C18.6176 8.65205 18.5254 8.10327 18.3317 7.62207C18.1622 7.16609 17.9004 6.77448 17.5619 6.43759C17.2454 6.10553 16.85 5.84965 16.3785 5.66725C15.8914 5.47682 15.3507 5.37382 14.7563 5.35772C14.2027 5.32178 13.2269 5.31213 12.0006 5.31695C10.7737 5.31213 9.7979 5.32178 9.24428 5.35772C8.64936 5.37382 8.10862 5.47682 7.62206 5.66725C7.15053 5.84965 6.75516 6.10553 6.43866 6.43759C6.10016 6.77448 5.83837 7.16609 5.66885 7.62207C5.47466 8.1038 5.38239 8.65259 5.35718 9.24429C5.303 10.2925 5.32499 11.0473 5.31641 11.999V12.0006C5.31855 12.2232 5.31855 12.4351 5.31855 12.6427C5.31855 13.3218 5.31533 13.9522 5.35664 14.7552C5.38239 15.3475 5.47466 15.8963 5.66832 16.3775C5.83783 16.8334 6.09962 17.225 6.43812 17.5619C6.75463 17.894 7.14999 18.1499 7.62153 18.3323C8.10862 18.5227 8.64936 18.6257 9.24375 18.6418C9.79736 18.6777 10.7732 18.6874 12 18.6826C13.2269 18.6874 14.2021 18.6777 14.7558 18.6418C15.3507 18.6257 15.8914 18.5227 16.378 18.3323C16.8495 18.1499 17.2449 17.894 17.5614 17.5619C17.8999 17.225 18.1617 16.8334 18.3312 16.3775C18.5254 15.8957 18.6176 15.3469 18.6429 14.7552C18.697 13.707 18.675 12.9522 18.6836 12.0006V11.999ZM17.4412 14.693V14.7032C17.4198 15.1967 17.3436 15.6087 17.2154 15.9279L17.2095 15.9429L17.2036 15.9579C17.0995 16.2385 16.9386 16.4842 16.7127 16.7095L16.7015 16.7208L16.6907 16.732C16.4976 16.9343 16.2535 17.0909 15.9445 17.2106L15.9402 17.2122C15.5862 17.3506 15.1763 17.4273 14.723 17.4396L14.7005 17.4402L14.678 17.4418C14.2724 17.4681 13.56 17.4815 12.5606 17.4815C12.382 17.4815 12.1964 17.4809 12.0043 17.4804H11.9941C11.8026 17.4809 11.617 17.4815 11.4378 17.4815C10.4384 17.4815 9.72601 17.4681 9.32046 17.4418L9.29793 17.4402L9.2754 17.4396C8.8221 17.4273 8.41225 17.3506 8.0582 17.2122L8.0539 17.2106C7.74437 17.0909 7.50083 16.9348 7.30771 16.732L7.29698 16.7208L7.28571 16.7095C7.05986 16.4842 6.89893 16.239 6.79486 15.9579L6.78896 15.9429L6.78306 15.9279C6.65485 15.6087 6.57867 15.1967 6.55721 14.7032V14.693C6.51966 13.9731 6.5202 13.3905 6.5202 12.7736C6.5202 12.5263 6.5202 12.2709 6.51805 11.9995C6.5202 11.7281 6.5202 11.4727 6.5202 11.2254C6.5202 10.6085 6.51966 10.0259 6.55721 9.30599V9.29579C6.57867 8.80226 6.65485 8.39027 6.78306 8.07108L6.78896 8.05606L6.79486 8.04104C6.89893 7.76048 7.05986 7.51425 7.28571 7.28947L7.29698 7.27875L7.30771 7.26748C7.50083 7.06524 7.74491 6.9086 8.0539 6.78897L8.0582 6.78736C8.41225 6.64896 8.8221 6.57224 9.2754 6.5599L9.29793 6.55937L9.32046 6.55776C9.72601 6.53147 10.4384 6.51806 11.4384 6.51806C11.617 6.51806 11.8026 6.5186 11.9941 6.51913H12.0043C12.1958 6.5186 12.3814 6.51806 12.5601 6.51806C13.56 6.51806 14.2724 6.53147 14.678 6.55776L14.7005 6.55937L14.723 6.5599C15.1763 6.57224 15.5862 6.64896 15.9402 6.78736L15.9445 6.78897C16.2535 6.9086 16.4976 7.0647 16.6907 7.26748L16.7015 7.27875L16.7127 7.28947C16.9386 7.51478 17.0995 7.76048 17.2036 8.04104L17.2095 8.05606L17.2154 8.07108C17.3436 8.39027 17.4198 8.80226 17.4412 9.29579V9.30599C17.4788 10.0259 17.4782 10.6085 17.4782 11.2254C17.4782 11.4727 17.4782 11.7281 17.4804 11.9995C17.4782 12.2709 17.4782 12.5263 17.4782 12.7736C17.4782 13.3905 17.4788 13.9731 17.4412 14.693Z" fill="white"/>
<path d="M11.999 8.56787C10.1038 8.56787 8.56738 10.1043 8.56738 11.999C8.56738 13.8943 10.1038 15.4301 11.999 15.4301C13.8943 15.4301 15.4302 13.8937 15.4302 11.999C15.4307 10.1043 13.8943 8.56787 11.999 8.56787ZM11.999 14.2274C10.77 14.2274 9.77064 13.2275 9.77064 11.999C9.77064 10.77 10.77 9.77059 11.999 9.77059C13.228 9.77059 14.2275 10.77 14.2275 11.999C14.2275 13.2275 13.228 14.2274 11.999 14.2274Z" fill="white"/>
<path d="M15.5676 7.62964C15.1245 7.62964 14.7656 7.98906 14.7656 8.43163C14.7656 8.87474 15.125 9.23362 15.5676 9.23362C16.0107 9.23362 16.3701 8.8742 16.3701 8.43163C16.3701 7.98906 16.0107 7.62964 15.5676 7.62964Z" fill="white"/>
</svg>
