<svg width="24" height="24" viewBox="0 0 24 24" fill="none" xmlns="http://www.w3.org/2000/svg">
<g clip-path="url(#clip0_25271_42262)">
<path d="M21.0013 6.95109V17.0486C21.0013 19.2308 19.2324 20.9997 17.0502 20.9997H6.95234C4.7698 21 3.00024 19.2304 3.00024 17.0476V6.95109C3.00024 4.76888 4.76913 3 6.95133 3H17.0498C19.232 3 21.0013 4.76888 21.0013 6.95109Z" fill="#0A0B09"/>
<path d="M13.0947 11.2309L17.3825 6.6333H16.3344L12.6296 10.6059L9.66311 6.6333H6.36393L10.7969 12.5697L6.32495 17.3662H7.37472L11.2633 13.1947L14.3783 17.3659H17.6758L13.0947 11.2309ZM11.7963 12.6248L11.3295 11.9998L7.8949 7.40047H9.27903L12.0987 11.1761L12.5654 11.7995L16.1472 16.5974H14.7631L11.7963 12.6248Z" fill="white"/>
</g>
<defs>
<clipPath id="clip0_25271_42262">
<rect width="18.001" height="18" fill="white" transform="translate(3 3)"/>
</clipPath>
</defs>
</svg>
