<svg width="24" height="24" viewBox="0 0 24 24" fill="none" xmlns="http://www.w3.org/2000/svg">
<path d="M6.98259 3H17.0174C19.2168 3 21 4.78316 21 6.98259V17.0174C21 19.2168 19.2168 21 17.0174 21H6.98259C4.78315 21 3 19.2168 3 17.0174V6.98259C3.00054 4.78316 4.78315 3 6.98259 3Z" fill="#0A0B09"/>
<path d="M18.354 8.78714C18.2451 8.3671 17.8975 7.80598 17.1813 7.60696C16.2425 7.36609 13.8537 7.35322 11.9997 7.328C11.0728 7.34088 10.0122 7.35 9.06591 7.38648C8.11961 7.42295 7.28758 7.48626 6.81819 7.60696C6.10203 7.80598 5.75495 8.3671 5.64551 8.78714C5.4599 9.39279 5.36816 11.0145 5.36816 11.9999C5.36816 12.9854 5.4599 14.6076 5.64551 15.2127C5.75441 15.6328 6.10203 16.1939 6.81819 16.3929C7.75697 16.6338 10.1458 16.6467 11.9997 16.6719C12.9267 16.659 13.9873 16.6499 14.9336 16.6134C15.8799 16.5769 16.7119 16.5136 17.1813 16.3929C17.8969 16.1939 18.2445 15.6333 18.354 15.2127C18.5391 14.6071 18.6313 12.9854 18.6313 11.9999C18.6313 11.0145 18.5391 9.39226 18.354 8.78714ZM10.6436 13.9719V10.0279L14.1101 11.9999L10.6436 13.9719Z" fill="white"/>
</svg>
